<svg width="191" height="154" viewBox="0 0 191 154" fill="none" xmlns="http://www.w3.org/2000/svg">
<path fill-rule="evenodd" clip-rule="evenodd" d="M109.933 153.998C132.799 153.998 152.865 136.918 141.596 113.72C130.327 90.5209 172.199 91.2702 184.499 75.2367C199.499 55.6831 195.155 -27.3184 98.8595 23.2834C83.434 31.3892 43.8181 14.9444 30.6773 23.104C15.2094 32.7087 -6.55324 52.3759 15.2094 72.5223C25.9292 82.4459 -12.5039 108.203 4.32902 131.275C20.7537 153.788 32.2672 132.327 57.2736 136.918C82.28 141.51 92.9506 153.998 109.933 153.998Z" fill="#F3C76F"/>
<path d="M83.3921 113.638C83.3921 113.638 88.657 111.151 90.6226 109.421C92.5882 107.691 95.0318 103.392 95.0318 103.392C95.0318 103.392 121.874 122.858 139.376 120.081C143.408 119.441 151.266 116.75 151.767 112.007C153.135 99.0576 134.204 95.7483 138.339 89.1813C140.864 85.1727 148.705 91.1386 148.705 91.1386L181.228 107.203C181.228 107.203 169.992 135.014 142.725 136.129C109.184 137.5 83.3921 113.638 83.3921 113.638Z" fill="white"/>
<path fill-rule="evenodd" clip-rule="evenodd" d="M57.6062 4.72759C57.301 4.60725 55.6616 2.59161 53.5805 2.22476C52.6347 2.05805 53.4931 3.2673 52.4522 3.27818C49.3524 3.31058 44.3147 2.72577 43.3815 3.27818C42.6879 3.68742 44.2154 5.11713 43.3815 5.18276C35.5137 5.80203 23.5108 13.6905 20.9066 17.5175C20.0779 18.7355 26.7807 16.6691 25.7127 17.2712C24.5141 17.947 23.1847 22.3721 22.3899 25.7898C21.8396 28.1433 21.4932 31.1721 21.3709 34.467C21.269 37.3116 21.3097 37.7823 21.7173 39.3377C22.1861 41.0772 22.5529 41.5888 23.1847 41.3433C23.4089 41.2614 23.5108 40.9544 23.5108 40.3814C23.5108 39.9312 23.7554 38.5805 24.0611 37.373L24.5909 35.2037L24.8151 36.1042C25.1005 37.1479 26.7716 40.3814 28.2798 42.7349C28.3611 42.8598 28.7111 42.7009 29.0266 41.935C29.3142 41.237 29.1975 40.122 29.686 38.9269C30.7988 36.2047 32.9837 32.6655 35.5137 29.8324C39.2528 25.6453 40.4934 20.7996 43.9984 16.9098C50.5394 9.65074 58.7489 5.17807 57.6062 4.72759Z" fill="white"/>
<path fill-rule="evenodd" clip-rule="evenodd" d="M25.808 18.2481C24.7588 19.0954 23.2012 25.9678 23.1745 26.0826C22.6242 28.4361 22.0938 36.6089 22.636 38.1563C23.1782 39.7036 24.6964 34.1258 24.6964 34.1258C24.6964 34.1258 26.9911 40.1093 29.0188 41.7499C29.1054 41.82 26.6087 34.347 25.808 29.9844C24.7512 24.2256 26.4052 17.7659 25.808 18.2481Z" fill="#E7EAEE"/>
<path fill-rule="evenodd" clip-rule="evenodd" d="M64.9149 138.618C66.8714 138.188 70.1726 136.691 71.4365 136.179C72.7005 135.668 76.552 130.206 77.9378 124.046C78.9365 119.503 79.446 113.036 78.8753 111.952C78.791 111.798 78.4828 108.857 79.3034 109.817C81.1275 111.952 83.2928 115.302 90.125 109.298C91.9859 107.663 94.4523 105.552 93.8029 103.686C91.9859 98.4655 84.1093 87.9532 82.9086 87.1569C81.4729 86.2047 74.2163 87.0138 63.4171 83.8131C51.1699 80.1832 46.0702 69.4945 41.2775 70.8858C37.4016 72.0111 28.1153 78.926 25.7847 83.305C14.7821 103.978 28.1153 118.464 31.1518 122.625L34.1 123.903L34.2019 126.543L34.3446 128.201C34.6095 131.373 34.7114 131.66 36.138 132.724C39.7045 135.446 46.7357 137.983 53.0943 138.884C56.0495 139.293 62.4692 139.15 64.9149 138.618Z" fill="white"/>
<path fill-rule="evenodd" clip-rule="evenodd" d="M35.261 125.571L35.4037 127.228C35.6686 130.4 35.7705 130.687 37.1971 131.751C39.3011 133.357 42.6109 134.898 46.2771 136.078C48.8254 136.897 51.546 137.542 54.1535 137.911C57.1086 138.32 63.5284 138.177 65.974 137.645C67.1828 137.382 57.2394 129.538 51.3817 131.751C46.8832 133.451 36.2805 120.485 40.5914 117.098C45.4273 113.298 36.5658 98.3103 36.2805 95.0566C35.9952 91.8028 34.8715 91.0253 34.8387 91.1395C34.8059 91.2536 34.8059 91.6429 34.8942 92.5808C35.2744 96.624 35.261 125.571 35.261 125.571Z" fill="#E7EAEE"/>
<path fill-rule="evenodd" clip-rule="evenodd" d="M34.1967 94.128C34.6246 94.0444 35.0389 94.3249 35.1222 94.7546C36.6604 102.69 43.1666 108.062 54.8007 110.871C66.5039 113.697 74.4756 113.545 78.6759 110.528C79.0305 110.274 78.7661 112.454 78.5065 112.621C75.7669 114.385 66.4527 117.018 55.3375 114.639C41.1256 111.597 34.4527 99.5968 33.5728 95.0574C33.4895 94.6277 33.7689 94.2117 34.1967 94.128Z" fill="#D06262"/>
<path fill-rule="evenodd" clip-rule="evenodd" d="M28.2724 79.8127C28.6508 79.5953 42.7664 95.8404 62.1378 99.5175C81.5091 103.195 86.1993 100.856 86.9532 95.8404C87.0183 95.4076 87.4205 95.1097 87.8515 95.175C88.2825 95.2403 88.5791 95.6441 88.5141 96.0769C87.5586 102.434 78.5951 103.946 61.8722 101.08C45.3595 98.2504 34.0383 91.5278 27.9793 80.8942C27.7629 80.5143 27.8941 80.0301 28.2724 79.8127Z" fill="#D06262"/>
<path fill-rule="evenodd" clip-rule="evenodd" d="M109.576 78.9094C109.046 78.7252 108.476 78.3159 108.109 77.8452L107.497 77.088L109.658 74.9391C112.98 71.6647 115.527 68.3084 117.728 64.3177C118.462 62.9875 120.316 58.5466 120.316 58.1168C120.316 57.9736 120.541 57.4005 120.806 56.807C121.213 55.9475 121.519 55.6201 122.395 55.1289C123.435 54.515 124.617 54.3103 125.126 54.6582C126.104 55.3131 126.104 57.3801 125.126 60.941C124.046 64.8498 122.599 67.6536 119.603 71.6852C119.134 72.2991 118.258 73.5066 117.626 74.3457C115.935 76.5968 114.834 77.6815 113.346 78.5205C111.879 79.3391 111.023 79.4415 109.576 78.9094ZM124.209 77.0672L125.676 77.7221C125.98 77.8631 129.337 79.4827 133.369 81.4281C139.869 84.5646 148.125 88.5481 148.176 88.5481C148.257 88.5481 148.64 87.6601 148.726 86.6244C148.93 84.3937 149.684 81.3649 150.56 79.257C150.968 78.3156 151.294 77.139 151.294 77.0367C151.294 76.99 150.963 76.8558 150.42 76.6361C149.775 76.3746 148.83 75.9919 147.789 75.4914C142.653 73.0151 132.605 67.9602 131.362 67.203C130.139 66.4867 129.895 66.4253 129.895 66.896C129.895 67.51 128.652 70.3547 127.694 71.8895C127.184 72.7286 126.186 74.243 125.472 75.2458L124.209 77.0672ZM147.827 84.8657C148.411 85.2058 147.399 85.7048 147.154 85.7867C145.714 85.9094 144.019 85.6375 142.63 84.8248C141.903 84.3076 136.185 81.1173 132.391 79.001C130.657 78.0335 129.325 77.2904 129.056 77.1299C128.201 76.6183 127.385 76.0657 127.243 75.902C126.815 75.3494 127.222 75.1039 128.425 75.2062C129.148 75.2677 146.564 84.1311 147.827 84.8657ZM64.9831 138.447C66.5551 138.101 68.9954 137.067 70.5494 136.409C70.9294 136.248 71.2564 136.109 71.5047 136.008C72.7687 135.497 76.6202 130.035 78.006 123.875C79.0046 119.332 79.5142 112.865 78.9435 111.781C78.5994 111.152 80.6436 113.26 82.1658 114.829L82.1665 114.83L82.1692 114.833C82.6293 115.307 83.0415 115.732 83.3253 116.017C92.211 124.878 105.438 132 119.174 135.336C126.022 137.014 130.893 137.608 137.435 137.608C148.42 137.608 157.081 135.438 164.948 130.67C165.322 130.443 165.672 130.235 166.006 130.037C168.748 128.406 170.382 127.435 174.853 122.382C179.868 116.713 184.33 103.554 185.817 99.0104C186.47 96.9638 188.059 88.824 188.059 86.7927C188.059 84.3878 187.224 83.2522 186.082 82.0857C184.065 80.1006 181.334 79.3843 179.072 80.2438L178.012 80.6531L177.686 79.5685C177.217 77.9313 176.239 76.6215 174.731 75.6392C172.489 74.1452 172.163 74.0429 170.145 74.0429C168.576 74.0429 168.148 74.1248 167.149 74.5955L165.987 75.1276L165.743 74.3908C165.274 72.8764 163.702 70.7652 162.482 70.1545C161.4 69.6129 159.527 69.5633 158.223 69.8066C155.369 70.3387 153.331 71.669 152.496 73.5313C152.251 74.1043 151.945 74.5545 151.823 74.5545C151.721 74.5545 147.706 73.4286 142.917 71.3002C142.11 70.9405 141.352 70.6031 140.64 70.2862L140.638 70.2851C132.037 66.4572 130.173 65.6275 130.342 64.588C130.485 63.708 130.444 63.2169 130.2 62.4597C129.772 61.1908 129.283 60.8429 127.897 60.8429C126.796 60.8429 126.796 60.8429 126.919 60.2903C127.571 57.1592 127.55 55.3583 126.857 54.2122C126.389 53.455 125.838 53.148 124.575 52.9638C123.841 52.8615 123.495 52.9229 122.679 53.3731C122.129 53.6596 121.66 53.8643 121.62 53.8234C121.579 53.7824 121.722 52.6569 121.946 51.3266C123.617 41.4829 122.326 33.0016 118.066 23.9969C118.026 23.9107 117.978 23.8089 117.924 23.6922C116.629 20.9006 111.423 9.67537 96.5316 4.01127C95.8576 3.75489 95.2198 3.50699 94.6069 3.26875C89.5345 1.29718 86.1624 -0.0134965 78.0264 0.000104863C68.9072 0.0153499 65.8186 1.30987 59.8065 4.07266C58.9709 4.4615 58.2372 4.68662 58.1761 4.60476C58.1149 4.50243 57.7277 4.25685 57.3405 4.0522C56.9532 3.84755 56.1177 3.33592 55.5063 2.92662C53.7536 1.73964 52.6734 1.24848 52.1231 1.37127C51.4914 1.53499 51.4914 2.06708 52.1231 2.31266C52.3881 2.41499 52.6938 2.7629 52.8161 3.1108C53.081 3.84755 53.3867 3.92941 53.5701 3.31545C53.6517 3.09034 53.7739 2.92662 53.8351 2.96755C53.8582 2.97915 53.9353 3.01541 54.053 3.07075L54.0538 3.07112L54.0543 3.07134C54.3522 3.21137 54.9084 3.47281 55.5063 3.76569C56.3418 4.17499 57.259 4.60476 57.5035 4.70708C57.9519 4.8708 57.8092 4.99359 55.8731 6.13964C48.312 10.601 42.1572 17.5387 38.713 25.4382C38.1831 26.6252 37.7143 27.362 37.2252 27.7713C35.982 28.815 33.5364 31.7824 32.9657 32.9489C32.66 33.5834 32.0079 34.5657 31.4984 35.1387C31.0092 35.7117 30.4793 36.4485 30.2959 36.7555C30.1329 37.0829 29.9698 37.308 29.9087 37.2671C29.8679 37.2057 29.9291 36.2029 30.0717 35.0364C30.3774 32.3145 30.3774 31.5982 30.1329 31.5369C29.766 31.4345 29.2361 32.8671 29.012 34.6476C28.8489 35.7322 28.8082 37.3694 28.9101 39.0476L29.0323 41.708L27.5854 39.3545C27.0869 38.5663 26.5962 37.778 26.2481 37.2189C26.0268 36.8635 25.8632 36.6008 25.7919 36.4894C25.262 35.7117 24.9563 34.5452 25.1805 34.1564C25.3028 33.9313 25.2824 33.8289 25.0786 33.8289C24.6506 33.8289 23.815 35.2001 23.2647 36.7759C22.9998 37.5127 22.7349 38.1266 22.6533 38.1266C22.3476 38.1266 22.4903 30.8001 22.8164 28.4466C23.4889 23.801 25.262 18.0708 26.0568 18.0708C26.2199 18.0708 26.3625 17.9889 26.3625 17.8662C26.3625 17.4978 25.8327 17.641 25.4047 18.1117C24.4468 19.1555 23.1832 22.3685 22.3884 25.7862C21.8381 28.1396 21.4917 31.1685 21.3694 34.4634C21.2675 37.308 21.3082 37.7787 21.7158 39.3341C22.1846 41.0736 22.5514 41.5852 23.1832 41.3396C23.4074 41.2578 23.5093 40.9508 23.5093 40.3778C23.5093 39.9276 23.7539 38.5769 24.0596 37.3694L24.5895 35.2001L24.8136 36.1006C25.099 37.1443 26.7701 40.3778 28.2783 42.7313C29.3177 44.3276 29.3381 44.4299 29.6845 46.9266C29.8679 48.3387 30.4386 51.7734 31.7633 57.0569C32.9338 61.7251 39.5138 66.3561 41.1568 67.5123L41.1568 67.5124C41.3733 67.6647 41.5041 67.7568 41.5254 67.7806C41.7292 68.0057 42.0145 68.1285 42.1776 68.0671C42.361 68.0057 42.4629 68.0876 42.4629 68.3127C42.4629 68.5173 42.6056 68.7834 42.7686 68.9062C42.9724 69.0494 43.1151 69.602 43.1558 70.5638C43.2577 72.4876 44.6844 76.1713 45.7849 77.3787C46.4982 78.1564 47.986 78.4838 49.6368 78.1973C50.7169 78.0336 51.0226 77.9108 50.9207 77.6652C50.8596 77.5015 51.2468 77.7062 51.7767 78.1155C57.9723 82.8634 64.2494 85.708 71.3009 86.9359C74.0319 87.4066 78.5563 87.6727 81.0223 87.4885L81.0225 87.4885H81.0226C82.6026 87.3847 83.0377 87.3561 83.1187 87.5118C83.1495 87.5709 83.1291 87.6567 83.1011 87.775C82.9584 88.348 83.1418 88.6959 86.1377 93.7918C88.5222 97.8234 88.726 98.0894 91.3754 100.811C97.0004 106.644 103.135 111.167 110.084 114.666C116.627 117.941 127.071 120.662 136.62 121.522C146.168 122.382 153.026 113.582 153.005 111.33C152.964 108.24 152.536 106.214 151.497 104.249C150.478 102.346 149.806 101.691 146.748 99.6448C143.345 97.3731 141.246 95.5108 139.86 93.5257C138.984 92.2773 138.658 90.8652 138.658 90.108C138.658 89.6169 139.289 88.5117 140.227 88.2866C141.083 88.0615 141.246 88.082 142.204 88.5527C142.774 88.8187 144.262 89.5145 145.485 90.108C146.728 90.6811 147.931 91.2541 148.175 91.3769C148.896 91.578 149.201 92.9952 149.366 93.7632C149.403 93.9349 149.433 94.0741 149.459 94.1601C149.744 95.2243 151.095 96.5984 151.966 97.0662C153.496 97.8877 157.265 97.9975 158.304 96.8719C158.569 96.5854 159.448 96.2331 159.629 96.3398C159.81 96.4466 160.464 97.3322 160.464 98.0485C160.485 99.2764 161.117 100.402 162.462 101.528C165.009 103.656 166.986 104.168 168.983 103.226C170.023 102.735 170.875 102.543 170.875 102.543C170.875 102.543 171.724 103.632 171.775 104.004C172.176 106.912 176.463 108.13 177.604 108.253C177.866 108.28 178.375 108.167 178.892 108.053C179.583 107.9 180.289 107.745 180.437 107.913C180.728 108.242 175.566 116.815 174.853 117.9C168.066 128.132 154.86 134.395 138.698 135.049C128.202 135.479 115.302 132.532 104.113 127.17C96.9596 123.712 90.6214 119.475 83.8348 113.541C82.6527 112.517 81.2872 111.351 80.7981 110.942C80.309 110.553 79.1473 109.222 78.2506 107.995C76.7424 105.948 75.8865 105.211 75.8865 105.907C75.8865 106.214 76.8647 108.097 77.9856 109.959C78.434 110.696 78.7193 111.208 78.6174 111.126C78.5155 111.044 78.1894 112.517 77.8837 114.4C76.8851 120.437 75.2343 126.393 73.5631 130.097C72.646 132.102 70.8875 133.6 70.3576 134.009C68.4011 135.503 65.4722 136.175 61.4165 136.584C56.2807 137.096 48.7196 135.95 42.952 133.781C41.4235 133.208 37.4901 131.55 37.2252 131.366C37.2093 131.35 37.119 130.761 36.993 129.94L36.9272 129.511L36.8787 129.196C36.145 124.142 35.126 104.679 35.126 95.6745C35.126 91.9499 35.0853 91.1313 34.8407 91.1313C34.3312 91.1313 34.1274 91.6225 33.9032 93.3824C33.3937 97.3936 33.4956 118.329 34.0459 122.729L34.1682 123.732L33.4752 123.343C32.4155 122.729 28.3802 118.616 26.9739 116.713C25.7835 115.086 25.0759 113.002 24.5465 111.443C24.4234 111.08 24.3099 110.746 24.2022 110.452C21.2471 102.225 22.2865 92.9936 26.3625 84.6848C29.8272 77.6038 34.0866 73.6745 40.323 71.7713C41.342 71.4643 42.2387 71.1369 42.3406 71.055C42.7279 70.6866 40.2415 70.8708 38.876 71.3006C34.4331 72.6717 29.7864 76.4169 26.6275 81.2057C22.1846 87.9183 20.1873 97.8234 21.5936 106.275C21.9197 108.281 23.2444 112.62 23.6112 112.927C23.6437 112.959 23.8113 113.312 24.0647 113.846L24.0648 113.846C24.7658 115.323 26.1234 118.183 27.0962 119.475C28.2783 121.092 31.8448 124.612 33.3326 125.697L34.2701 126.372L34.4127 128.03C34.6777 131.202 34.7796 131.488 36.2062 132.553C39.7727 135.275 46.8039 137.812 53.1625 138.713C56.1177 139.122 62.5374 138.979 64.9831 138.447ZM133.871 119.227C122.03 118.183 107.723 112.514 97.37 103.755C93.0086 100.05 87.3429 92.847 85.1011 88.8563C84.6323 88.0377 84.2859 87.6489 83.8783 87.5466C83.4503 87.4238 83.8171 87.301 85.5698 87.0145C92.9678 85.7456 100.162 82.6554 105.97 78.2554L106.826 77.621L107.071 78.2145C107.621 79.5447 109.741 80.8954 111.31 80.8954C111.942 80.8954 114.061 79.9335 115.345 79.0535L116.222 78.4601L116.935 79.1763C117.587 79.8312 117.709 79.8721 118.932 79.8721C120.338 79.8721 122.03 79.2377 122.968 78.3373L123.477 77.8666L124.924 78.8284C125.698 79.381 127.859 80.5884 129.713 81.5503C132.485 82.9828 135.42 84.6405 138.212 86.3596L138.66 86.6461L138.232 87.2191C137.784 87.8331 136.949 88.9996 136.949 90.78C136.949 92.7856 139.026 96.389 143.001 98.8637C146.125 100.808 151.5 104.632 151.296 110.222C151.271 110.897 150.522 112.575 149.523 114.09C148.871 115.052 147.057 116.484 145.406 117.323C142.594 118.735 137.641 119.554 133.871 119.227ZM25.2033 27.3619C25.7536 27.4847 26.1204 27.6689 26.0389 27.7507C25.774 28.0168 24.3677 27.894 24.0416 27.5666C23.5321 27.0754 23.6544 26.7275 24.3677 26.5842C24.7346 26.5228 25.2848 26.2159 25.5905 25.9089C25.8962 25.6019 26.1612 25.4587 26.1612 25.561C26.1612 25.827 25.1422 26.7684 24.6327 26.9731C24.3066 27.1163 24.4085 27.1777 25.2033 27.3619ZM33.3143 27.6915C33.9053 27.364 33.783 27.1389 33.0901 27.2412C32.3972 27.3436 32.3564 27.2617 32.8048 26.5659C32.9882 26.2999 33.0901 25.911 33.0493 25.7064C32.9882 25.4403 32.8455 25.5631 32.5195 26.218C32.2749 26.6887 31.9284 27.0775 31.7654 27.0775C31.2559 27.0775 31.2151 27.4868 31.7043 27.671C32.336 27.9371 32.8252 27.9371 33.3143 27.6915ZM26.2617 16.5191C25.7726 16.6009 24.2441 17.2149 22.899 17.8902C21.5335 18.5451 20.3718 19.0977 20.2903 19.0772C18.2115 18.8521 21.1055 15.373 26.3636 11.8121C31.3975 8.39444 34.801 6.59351 37.96 5.67258C39.9369 5.09955 42.1583 5.01769 42.7901 5.48839C43.1366 5.75444 43.0143 5.7749 41.5061 5.79537C38.2453 5.79537 34.475 7.47351 28.3405 11.587C25.1612 13.7154 21.4724 16.7647 21.4724 17.2558C21.4724 17.3582 22.0634 17.1535 22.7971 16.8261C24.3664 16.1098 25.9764 15.7414 26.6897 15.9051C27.4438 16.1098 27.2807 16.3758 26.2617 16.5191ZM34.1501 18.2724C36.0659 17.8836 36.1474 17.8631 36.1474 17.6585C36.1474 17.5561 35.4137 17.4538 34.4966 17.4129L32.8458 17.3515L34.3743 15.612C35.2099 14.6501 36.1882 13.6882 36.5346 13.4631C37.2887 12.972 37.3294 12.6241 36.718 12.4194L36.2493 12.2762L36.7588 12.092C37.0441 11.9896 37.574 11.9487 37.9409 12.0101C38.4911 12.092 38.6134 12.051 38.5523 11.7645C38.4911 11.478 38.2669 11.4166 37.2683 11.4371C34.3539 11.478 33.1107 12.2557 35.3933 12.6241C36.0251 12.7264 36.555 12.8901 36.555 12.9924C36.555 13.0743 36.4531 13.1562 36.3308 13.1562C35.9436 13.1562 32.6624 16.492 32.2548 17.3106C31.623 18.518 31.9695 18.7022 34.1501 18.2724ZM47.601 10.3321C47.0099 10.373 46.8673 10.4753 46.908 10.7618L46.9143 10.8035C46.9372 10.955 46.9504 11.042 46.9165 11.0683C46.8708 11.1038 46.7396 11.0291 46.4316 10.8536L46.3782 10.8232C45.9909 10.6186 45.9502 10.5162 46.1744 10.3525C46.317 10.2297 46.7042 10.0455 47.0099 9.98415L47.5806 9.84089L47.1526 9.39066C46.9284 9.12461 46.8061 8.87903 46.8673 8.79717C47.0303 8.63345 49.0276 8.85857 49.3129 9.08368C49.4352 9.18601 49.6186 9.16554 49.7409 9.04275C50.0262 8.75624 50.4134 8.98136 50.4134 9.43159C50.4134 9.67717 50.3523 9.69764 50.1689 9.51345C50.0058 9.34973 49.8632 9.34973 49.6798 9.49298C49.5167 9.63624 49.3944 9.63624 49.2925 9.47252C49.2314 9.37019 48.8442 9.26787 48.4366 9.26787C48.0608 9.26787 47.883 9.26787 47.8465 9.33967C47.8137 9.40417 47.895 9.52661 48.0493 9.75903C48.3744 10.2691 48.3552 10.2707 47.6079 10.3315L47.601 10.3321ZM44.5018 4.88588C44.5018 4.61983 44.2573 4.14913 43.9516 3.84216L43.3809 3.26913L46.4379 3.39193C48.1295 3.47379 50.0452 3.65797 50.7178 3.84216C51.3903 4.00588 52.1648 4.12867 52.4501 4.12867C52.8781 4.12867 52.7966 4.04681 52.0017 3.61704C50.6159 2.90076 48.8428 2.55286 45.4393 2.30727C41.3633 2.02076 39.3049 2.4096 39.6921 3.43286C39.7532 3.63751 40.0793 3.73983 40.5684 3.73983C41.5671 3.73983 43.1975 4.33332 43.7478 4.88588C44.3388 5.47937 44.5018 5.47937 44.5018 4.88588ZM34.5573 59.076C36.2081 61.2043 38.3888 63.6192 39.4078 64.4378C40.0192 64.929 40.5491 65.3383 40.5898 65.3383C40.6102 65.3383 40.1618 64.3969 39.5912 63.2509C37.2882 58.6462 35.9431 54.062 35.3113 48.782C35.1687 47.6155 34.9445 46.6332 34.6999 46.2239C34.2108 45.4053 34.2108 44.3411 34.7203 43.3383C34.9853 42.8062 35.1279 42.1309 35.1279 41.3941V40.2685L34.1497 41.2918C33.1918 42.2946 32.2747 42.7039 32.2747 42.0899C32.2747 41.6397 33.7828 39.4704 34.5777 38.795C35.2094 38.2629 35.291 38.0788 35.4948 36.4825C35.6374 35.5206 35.9635 33.822 36.2285 32.6964C36.5138 31.5709 36.6768 30.609 36.6361 30.5681C36.4934 30.4248 31.704 35.9483 31.0519 37.7104C30.9087 38.0973 30.522 38.7746 30.2163 39.1839L29.6864 39.8671C29.6864 39.8671 29.851 40.8237 30.0329 42.026C30.2166 43.2407 30.3028 44.0757 30.3796 44.8194C30.4823 45.8144 30.5682 46.6459 30.8481 48.0043C31.1742 49.6825 31.5002 51.1355 31.5818 51.2378C31.6429 51.3606 31.9078 52.302 32.1728 53.3457C32.7434 55.6583 33.7013 57.9504 34.5573 59.076ZM117.259 78.4355L116.831 78.0057C116.831 78.0057 123.935 68.9431 125.207 65.6039C126.179 63.0555 126.75 62.3329 127.522 62.3329C127.953 62.3329 128.305 62.4318 128.468 62.6774C128.754 63.1071 129.029 63.6392 128.662 65.4606C128.05 68.4076 127.113 70.3518 124.3 74.5471C123.648 75.509 122.813 76.5732 122.446 76.9415C121.59 77.7397 119.664 78.5583 118.543 78.7425C117.83 78.8448 117.626 78.8038 117.259 78.4355Z" fill="#00160A"/>
<path d="M173.693 98.4583C176.228 91.5213 175.845 90.0432 175.405 89.8986C175.405 89.8986 174.437 90.4512 174.009 91.6177C173.214 93.8075 170.493 99.5377 169.474 100.561C168.272 101.768 168.272 101.768 167.049 101.768C165.826 101.768 162.299 99.9192 161.819 98.0964C161.051 95.18 164.359 85.0484 164.44 84.4754L163.89 84.0865C163.523 84.4345 158.751 98.9647 152.477 95.1786C151.759 94.7451 150.235 92.7024 150.113 91.6177C149.434 88.4661 152.55 77.4457 153.08 75.182C153.554 73.1559 156.023 71.2754 159.06 71.2754C163.727 71.2754 163.1 75.372 165.19 76.8155C166.117 77.4552 167.639 76.2955 168.109 76.2075C170.738 75.7163 171.745 76.2882 173.672 77.8242C175.16 79.0099 176.261 81.3565 177.473 82.1833C178.146 82.6426 178.86 82.0147 179.094 81.8968C180.052 81.4134 182.11 81.774 182.68 82.1833C183.517 82.5496 185.567 84.5284 185.891 85.6793C187.359 90.8955 182.724 102.46 180.974 104.629C178.078 108.22 171.157 105.395 173.693 98.4583Z" fill="white"/>
<path fill-rule="evenodd" clip-rule="evenodd" d="M56.5266 79.4537C62.1108 82.9941 67.8687 85.3067 74.4312 85.9411C79.6078 86.4323 86.5874 85.7569 91.6009 84.1197C95.8197 82.7486 101.526 78.9502 105.337 75.7371C112.735 69.5158 117.402 59.7979 119.44 49.4835C119.726 48.0305 120.161 44.378 120.14 40.7557C120.14 36.5399 118.293 25.0193 112.694 18.3766C101.148 4.67593 82.1681 -1.49582 66.2169 3.77754C60.4628 5.67981 54.3363 9.12634 49.71 13.6287C43.8812 19.3384 39.581 27.1152 37.8691 35.0556C36.0756 43.4463 38.4086 53.4742 42.4642 61.7012C45.7047 68.25 51.0443 75.9542 56.5266 79.4537ZM110.941 54.718C107.109 66.2808 97.1232 74.9171 84.569 77.5366C82.6532 77.9254 81.3285 78.0687 78.6383 78.1096C76.743 78.171 74.8476 78.1506 74.4604 78.1096C65.6765 77.0454 58.9918 73.7915 52.837 67.611C50.1468 64.8892 49.0055 63.4157 47.3344 60.5096C44.7053 55.905 43.2991 51.198 42.8711 45.5292C41.4037 26.1078 55.2419 9.91987 74.7253 8.24173C82.3679 7.58685 90.8461 9.94034 97.2862 14.5245C99.6707 16.2231 103.991 20.5208 105.336 22.5264C105.887 23.3245 111.226 31.1627 112.164 35.665C113.366 41.518 112.897 48.8445 110.941 54.718Z" fill="white"/>
<path fill-rule="evenodd" clip-rule="evenodd" d="M120.147 40.7538C120.147 54.4902 113.676 69.5077 105.325 75.9213C101.341 78.9812 96.1341 82.6864 91.5999 84.1178C84.9551 86.2156 74.4302 85.9392 74.4302 85.9392C74.4302 85.9392 85.1678 84.4978 89.1469 82.8898C100.557 78.2786 106.786 71.2001 110.633 64.4085C118.225 51.0021 120.147 40.4201 120.147 40.7538Z" fill="#E7EAEE"/>
<path fill-rule="evenodd" clip-rule="evenodd" d="M74.6661 75.6527C69.2246 74.9568 63.8238 73.0127 59.4625 70.1271C56.8742 68.4285 52.9612 64.4378 51.0658 61.5931C48.3553 57.5001 46.5618 53.1206 45.6855 48.4136C45.0537 44.9959 45.074 39.7364 45.7058 36.6871C46.358 33.5764 47.1936 31.2024 48.6813 28.1941C50.4137 24.715 52.2479 22.1568 54.9992 19.3941C59.6867 14.6871 65.1282 11.6992 71.6091 10.2666C73.7082 9.81638 81.3101 9.44801 81.575 9.79592C81.6361 9.89825 82.0438 10.1643 82.4717 10.3894C82.8997 10.635 84.041 11.4945 84.9785 12.3336C86.3847 13.5615 87.0165 14.3392 88.2393 16.2629C89.0749 17.5727 89.7475 18.7596 89.7475 18.862C89.7475 19.0871 90.3996 19.4964 90.7665 19.4964C91.276 19.4964 91.6224 17.9615 91.7243 15.2601C91.7855 13.7662 91.9078 12.5382 91.9893 12.5382C92.2746 12.5382 95.4132 14.2778 96.8805 15.2601C99.7542 17.1838 102.628 19.8852 104.747 22.7094C105.705 23.9782 105.848 24.3057 105.848 25.0834C105.848 25.7996 106.052 26.3522 106.683 27.4573C108.273 30.2406 109.516 33.7401 110.27 37.608C110.759 40.2071 110.759 45.1187 110.25 47.8406C108.864 55.3308 104.747 62.7801 99.3873 67.5075C94.8425 71.4982 90.0124 73.9541 84.306 75.1615C82.3495 75.5913 76.48 75.8778 74.6661 75.6527ZM60.0945 61.6648C60.2779 61.4602 60.4002 61.1532 60.339 61.0099C60.3207 60.9669 60.0655 60.8465 59.692 60.6701C58.8212 60.2591 57.3074 59.5444 56.6514 58.7997C54.0427 55.8118 53.0848 53.5811 52.4938 48.9765C51.9232 44.4946 52.4026 41.4647 53.4313 36.5951C53.9331 34.2196 55.267 32.2574 56.0968 31.0366C56.661 30.2066 56.9923 29.7193 56.6706 29.6779C55.8758 29.5551 55.7535 29.6165 54.9179 30.4146C53.1244 32.1337 52.3092 33.5048 51.4533 36.1448C50.1285 40.2788 49.8726 51.4507 52.4938 56.4871C55.115 61.5236 59.6257 62.1969 60.0945 61.6648ZM89.0738 44.4684C88.7277 47.6476 87.26 52.2451 85.5481 54.2507C84.7532 55.1921 81.8356 56.8089 79.3729 56.4814C76.9941 56.1652 75.1338 55.0489 73.5441 52.6544C72.1787 50.5875 71.4734 48.0785 70.9966 44.9186C70.1732 39.4621 73.7683 33.1103 75.3172 31.5345C76.8865 29.9177 78.0074 29.3447 79.434 29.3242C80.8199 29.3242 81.7166 29.6312 83.1228 30.634C85.6907 32.4349 89.7464 38.2906 89.0738 44.4684ZM61.603 27.5457C62.0106 27.0751 62.0718 26.8499 61.9495 25.9699C61.868 25.1513 61.7049 24.8239 61.2769 24.476C60.5229 23.862 59.5854 23.862 58.8925 24.5169C58.4033 24.9876 58.3422 25.1513 58.4033 26.2769C58.4645 27.4844 58.5052 27.5662 59.1778 27.9346C60.0745 28.4257 60.9509 28.2825 61.603 27.5457ZM74.3189 14.9254C70.6505 17.5654 69.0608 18.6501 67.41 19.6733C66.1057 20.4919 65.6981 20.5124 65.6981 19.7756C65.6981 19.3868 65.9834 18.957 66.7171 18.2817L67.7361 17.3403L65.7592 17.0742C63.5378 16.7877 61.3775 16.1738 60.9087 15.7031C60.1343 14.9049 60.8068 14.7208 63.0079 15.1301C63.9861 15.2938 65.8815 15.4984 67.2266 15.5394L69.6722 15.6417L71.4453 14.3524C75.3379 11.5282 79.3732 9.93193 81.3093 10.4231C82.5117 10.7096 82.3691 11.037 81.0036 11.2008C79.4343 11.3849 78.4765 11.917 74.3189 14.9254Z" fill="white"/>
<path d="M79.5552 53.6814C79.5552 53.579 79.6776 53.4766 79.8408 53.4766C80.004 53.4766 80.208 53.579 80.2692 53.6814C80.3304 53.8044 80.208 53.8863 79.9836 53.8863C79.7388 53.8863 79.5552 53.8044 79.5552 53.6814Z" fill="white"/>
<path d="M80.7778 53.4903C80.7778 53.2652 81.2873 53.0605 81.858 53.0605C82.3063 53.081 82.3063 53.081 81.9191 53.3675C81.4708 53.7154 80.7778 53.7768 80.7778 53.4903Z" fill="white"/>
<path d="M77.6189 52.958C77.5578 52.7943 77.4763 52.5078 77.4151 52.3441C77.354 52.1394 77.4559 52.0371 77.7208 52.0371C77.945 52.0371 78.1285 52.1599 78.1285 52.3236C78.1285 52.4873 78.1896 52.7534 78.2507 52.9376C78.3323 53.1627 78.2711 53.265 78.0469 53.265C77.8635 53.265 77.6597 53.1218 77.6189 52.958Z" fill="white"/>
<path d="M78.7005 52.4514C78.5986 51.8375 78.8228 51.6328 79.5564 51.6328C79.7806 51.6328 79.964 51.8375 80.0456 52.1854C80.2086 52.7789 79.9437 53.0654 79.2304 53.0654C78.9043 53.0654 78.7616 52.9221 78.7005 52.4514Z" fill="white"/>
<path d="M76.622 52.5495C76.2344 52.2422 76.2344 52.2422 76.6628 52.2422C76.928 52.2422 77.1116 52.3651 77.1116 52.5495C77.1116 52.9183 77.1116 52.9183 76.622 52.5495Z" fill="white"/>
<path d="M80.7181 52.5336C80.4532 52.2675 80.5754 51.4694 80.9015 51.3466C81.4926 51.1215 81.7575 51.2238 81.8798 51.7559C81.9613 52.0629 82.0021 52.3289 81.9613 52.3494C81.7983 52.5336 80.8404 52.6564 80.7181 52.5336Z" fill="white"/>
<path d="M82.5322 52.1C82.4711 52.0386 82.4099 51.7726 82.4099 51.527C82.4099 51.1791 82.573 51.0358 83.0621 50.9335C83.4901 50.8516 83.755 50.8926 83.8773 51.0563C84.0811 51.3837 84.0811 51.793 83.8977 51.8954C83.5308 52.1 82.6749 52.2228 82.5322 52.1Z" fill="white"/>
<path d="M75.6833 51.4618C75.6833 51.2163 75.8668 51.0116 76.1317 50.9502C76.6616 50.807 76.6412 50.7865 76.7431 51.3186C76.7839 51.6256 76.682 51.7483 76.254 51.7893C75.8056 51.8507 75.6833 51.7688 75.6833 51.4618Z" fill="white"/>
<path d="M77.2329 51.4835C76.9476 51.1765 77.131 50.6035 77.5182 50.6035C77.7832 50.6035 77.9258 50.7468 77.9258 50.9924C77.9258 51.3812 77.4571 51.7086 77.2329 51.4835Z" fill="white"/>
<path d="M78.4569 50.8804C78.2939 50.4916 78.6403 50.2051 79.3129 50.2051C79.6186 50.2051 79.7612 50.3279 79.7612 50.5939C79.7612 50.819 79.5778 51.0237 79.3129 51.1055C78.6403 51.2693 78.5996 51.2693 78.4569 50.8804Z" fill="white"/>
<path d="M84.344 50.8084C84.4052 50.706 84.5072 50.6035 84.5684 50.6035C84.6296 50.6035 84.6092 50.706 84.548 50.8084C84.4868 50.9313 84.3848 51.0133 84.3236 51.0133C84.2624 51.0133 84.2828 50.9313 84.344 50.8084Z" fill="white"/>
<path d="M80.2891 50.4625C80.126 50.0532 80.3298 49.8485 80.982 49.7462C81.3489 49.7053 81.5119 49.7871 81.5527 50.0737C81.6953 50.749 80.5336 51.1174 80.2891 50.4625Z" fill="white"/>
<path d="M75.3975 50.1215C75.2141 49.4462 75.2549 49.3848 75.7847 49.3848C76.0701 49.3848 76.2942 49.4666 76.2942 49.569C76.2942 49.6713 76.3554 49.8964 76.4165 50.0601C76.4777 50.2648 76.3554 50.3876 76.0089 50.449C75.6217 50.5308 75.479 50.449 75.3975 50.1215Z" fill="white"/>
<path d="M82.2058 49.8912C82.2058 49.5229 82.3485 49.3591 82.7357 49.2568C83.3063 49.1136 83.6324 49.4001 83.6324 50.0549C83.6324 50.321 83.4694 50.4029 82.9191 50.4029C82.2873 50.4029 82.2058 50.3415 82.2058 49.8912Z" fill="white"/>
<path d="M74.7853 49.8932C74.7241 49.7293 74.7649 49.5859 74.867 49.5859C74.9894 49.5859 75.071 49.7293 75.071 49.8932C75.071 50.0571 75.0302 50.2005 74.9894 50.2005C74.9486 50.2005 74.867 50.0571 74.7853 49.8932Z" fill="white"/>
<path d="M76.8443 50.0585C76.559 49.7925 76.722 49.2195 77.0888 49.1171C77.313 49.0558 77.5372 49.0762 77.5983 49.1376C77.8429 49.3627 77.7002 49.9562 77.3945 50.079C77.0073 50.2223 77.0073 50.2223 76.8443 50.0585Z" fill="white"/>
<path d="M84.1211 49.913C83.8969 49.3195 84.1414 48.8693 84.7121 48.8079C85.1401 48.7465 85.2623 48.8284 85.2623 49.1558C85.2623 49.8311 85.0382 50.1995 84.6306 50.1995C84.4064 50.1995 84.1822 50.0767 84.1211 49.913Z" fill="white"/>
<path d="M78.2723 49.6483C78.0278 49.4231 78.1093 49.0138 78.4557 48.891C78.843 48.7478 79.6582 49.1571 79.434 49.3822C79.1487 49.6278 78.415 49.812 78.2723 49.6483Z" fill="white"/>
<path d="M80.0458 49.1331C79.8623 48.8466 80.5145 48.3555 81.0444 48.3555C81.289 48.3555 81.3909 48.4783 81.3501 48.7034C81.2686 49.1127 80.2292 49.4401 80.0458 49.1331Z" fill="white"/>
<path d="M74.4623 48.9856C74.4623 48.8832 74.4012 48.6581 74.34 48.4739C74.2789 48.2897 74.2993 48.1465 74.4215 48.1465C74.6865 48.1465 74.8903 48.9242 74.6457 49.0879C74.5438 49.1493 74.4623 49.1083 74.4623 48.9856Z" fill="white"/>
<path d="M75.0103 48.5238C74.888 48.0735 75.1326 47.7461 75.6013 47.7461C75.8662 47.7461 76.1312 48.5442 75.9681 48.8103C75.744 49.1582 75.1122 48.9535 75.0103 48.5238Z" fill="white"/>
<path d="M76.4366 48.6178C76.1309 48.3108 76.3143 47.5741 76.7219 47.4718C77.0276 47.3899 77.1906 47.4922 77.3537 47.8606C77.476 48.1266 77.5371 48.3927 77.4963 48.4336C77.2925 48.6178 76.5588 48.7611 76.4366 48.6178Z" fill="white"/>
<path d="M81.9415 48.624C81.6765 48.3579 81.7988 48.1942 82.4102 47.9691C82.9197 47.8054 83.0624 47.8258 83.1643 48.0714C83.3477 48.5626 82.3287 49.0333 81.9415 48.624Z" fill="white"/>
<path d="M83.7348 48.1491C83.531 47.8217 83.8163 47.5352 84.3462 47.5352C84.978 47.5352 85.1614 48.0672 84.5908 48.231C83.9794 48.3947 83.8775 48.3742 83.7348 48.1491Z" fill="white"/>
<path d="M85.4648 47.6575C85.4648 47.3502 85.8321 47.0224 85.9953 47.1863C86.1381 47.3297 85.8525 47.9443 85.6485 47.9443C85.5465 47.9443 85.4648 47.8214 85.4648 47.6575Z" fill="white"/>
<path d="M74.195 47.3906C74.1134 47.3291 74.0522 47.0628 74.0726 46.8374C74.0726 46.4482 74.093 46.4482 74.2766 46.8989C74.4806 47.3906 74.4398 47.6364 74.195 47.3906Z" fill="white"/>
<path d="M74.5824 47.0941C74.399 46.3778 74.4194 46.3164 74.9492 46.3164C75.5403 46.3164 75.9071 47.0736 75.4587 47.3601C74.99 47.6466 74.7251 47.5648 74.5824 47.0941Z" fill="white"/>
<path d="M81.5938 47.5022C81.5938 47.4408 81.6957 47.1134 81.8179 46.745C82.1033 45.9264 82.735 45.8855 82.8777 46.6836C82.9388 46.9906 82.9592 47.2566 82.9388 47.2771C82.8369 47.3999 81.5938 47.5841 81.5938 47.5022Z" fill="white"/>
<path d="M76.0299 46.9858C75.9483 46.9244 75.8872 46.6788 75.8872 46.4537C75.8872 46.1262 75.9483 46.1058 76.1929 46.3104C76.356 46.4537 76.4986 46.6992 76.4986 46.8425C76.4986 47.1495 76.2541 47.2313 76.0299 46.9858Z" fill="white"/>
<path d="M83.3657 46.5793C83.2434 45.9449 83.5084 45.6584 84.1402 45.7402C84.4459 45.7812 84.5478 45.9654 84.5478 46.4156C84.5478 46.9272 84.4662 47.05 84.0179 47.0909C83.5695 47.1523 83.4676 47.05 83.3657 46.5793Z" fill="white"/>
<path d="M85.365 46.6625C85.1 45.8439 85.1815 45.5983 85.7318 45.5369C86.2209 45.4755 86.2821 45.5369 86.2821 46.069C86.2821 46.5192 86.1598 46.7034 85.8541 46.7853C85.6299 46.8467 85.4057 46.7853 85.365 46.6625Z" fill="white"/>
<path d="M73.8901 45.4917C73.8901 45.1024 73.9311 44.9385 73.9926 45.1434C74.0335 45.3278 74.0335 45.6556 73.9926 45.8604C73.9311 46.0448 73.8901 45.8809 73.8901 45.4917Z" fill="white"/>
<path d="M74.3995 45.7614C74.1346 45.5158 74.2568 44.7177 74.5829 44.5949C75.0517 44.4107 75.2759 44.6358 75.2759 45.3112C75.2759 45.741 75.1739 45.9047 74.909 45.9047C74.7052 45.9047 74.4606 45.8433 74.3995 45.7614Z" fill="white"/>
<path d="M75.6228 45.2022C75.5413 44.8952 75.5005 44.5678 75.582 44.5064C75.7858 44.3017 75.9081 44.6292 75.847 45.2227L75.7858 45.7957L75.6228 45.2022Z" fill="white"/>
<path d="M82.2058 45.0604C82.2058 44.835 82.3078 44.7121 82.4098 44.7736C82.5322 44.835 82.6138 45.0399 82.6138 45.2038C82.6138 45.3677 82.5322 45.4906 82.4098 45.4906C82.3078 45.4906 82.2058 45.3062 82.2058 45.0604Z" fill="white"/>
<path d="M83.1232 45.3248C82.8379 45.0179 83.0621 44.4653 83.5308 44.3425C84.1219 44.1993 84.1422 44.1993 84.3257 44.7927C84.4479 45.1611 84.3664 45.243 83.8365 45.3248C83.5104 45.3862 83.1844 45.3658 83.1232 45.3248Z" fill="white"/>
<path d="M84.9977 44.9359C84.7735 44.7312 84.8347 44.0559 85.0588 44.0559C85.1811 44.0559 85.2626 43.974 85.2626 43.8512C85.2626 43.7489 85.1404 43.6465 84.9773 43.6465C84.6309 43.6465 84.3455 42.6438 84.6309 42.3572C84.9977 41.9889 85.4053 42.3777 85.6499 43.3805C85.7925 43.9126 85.9352 44.5265 85.9963 44.7312C86.0779 44.9972 85.9963 45.0791 85.6091 45.0791C85.3442 45.0791 85.0588 45.0177 84.9977 44.9359Z" fill="white"/>
<path d="M86.0969 43.8613C85.9542 43.2473 85.5874 42.0194 85.3224 41.1189C84.9148 39.8092 84.8741 39.4817 85.0983 39.3385C85.2409 39.2362 85.4243 39.1543 85.4855 39.1543C85.7097 39.1543 86.5249 43.3496 86.4434 44.1682L86.3822 44.9868L86.0969 43.8613Z" fill="white"/>
<path d="M73.686 43.7581C73.686 43.4303 73.727 43.3074 73.7885 43.5123C73.8294 43.6967 73.8294 43.9835 73.7885 44.1269C73.727 44.2498 73.686 44.1064 73.686 43.7581Z" fill="white"/>
<path d="M74.0948 43.7093C74.1763 42.993 74.7674 42.8293 74.9304 43.4841C75.0731 44.0162 75.1138 43.9548 74.5024 44.1595C74.0744 44.2823 74.0337 44.2413 74.0948 43.7093Z" fill="white"/>
<path d="M82.6948 43.5296C82.5318 42.9361 82.8782 42.5882 83.5304 42.6701C84.0195 42.7315 84.2029 43.6115 83.7953 43.8775C83.2858 44.2049 82.8171 44.0617 82.6948 43.5296Z" fill="white"/>
<path d="M75.2754 43.3622C75.2754 43.0143 75.3773 42.8301 75.6015 42.8301C75.8053 42.8301 75.8868 42.9733 75.846 43.2803C75.7441 43.9352 75.2754 43.9966 75.2754 43.3622Z" fill="white"/>
<path d="M73.4608 42.5065C73.4608 42.2812 73.5223 42.2197 73.5837 42.3836C73.6452 42.527 73.6247 42.7114 73.5632 42.7729C73.5018 42.8548 73.4403 42.7319 73.4608 42.5065Z" fill="white"/>
<path d="M73.8481 42.44C73.8481 42.1327 73.9706 42.0098 74.2766 42.0098C74.5622 42.0098 74.6642 42.1122 74.6234 42.358C74.5214 42.8907 73.8481 42.9522 73.8481 42.44Z" fill="white"/>
<path d="M74.9692 42.2515C74.8265 41.8832 74.8265 41.8832 75.4379 41.7194C75.8047 41.5967 75.8863 41.6581 75.8863 41.965C75.8863 42.4562 75.1526 42.7018 74.9692 42.2515Z" fill="white"/>
<path d="M82.348 41.9691C82.2054 41.4575 82.4703 41.1914 83.1836 41.1914C83.5301 41.1914 83.632 41.3142 83.632 41.703C83.632 42.01 83.5097 42.2147 83.3467 42.2147C83.1836 42.2147 82.9187 42.2761 82.7556 42.3375C82.5722 42.3988 82.4295 42.2761 82.348 41.9691Z" fill="white"/>
<path d="M84.1215 41.5053C83.9585 41.096 84.2031 40.7891 84.6718 40.7891C84.9571 40.7891 85.059 40.9323 85.059 41.3007C85.059 41.6691 84.9571 41.8123 84.6514 41.8123C84.4272 41.8123 84.1827 41.6691 84.1215 41.5053Z" fill="white"/>
<path d="M73.6455 41.2172C73.6455 40.7874 74.1143 40.2963 74.3181 40.5214C74.3996 40.5828 74.4607 40.8693 74.4607 41.1353C74.4607 41.4628 74.3384 41.606 74.0531 41.606C73.7882 41.606 73.6455 41.4628 73.6455 41.2172Z" fill="white"/>
<path d="M74.7653 40.965C74.6023 40.4534 74.7857 40.2283 75.4786 40.1259C76.1104 40.0441 76.3142 40.7194 75.7639 41.1287C75.234 41.5176 74.908 41.4562 74.7653 40.965Z" fill="white"/>
<path d="M82.1432 40.8422C82.0005 40.7194 81.9394 39.9622 82.0617 39.9622C82.082 39.9622 82.3877 39.8803 82.7546 39.778C83.366 39.5938 83.4068 39.6143 83.3864 40.1668C83.366 40.5761 83.2437 40.7808 82.938 40.8626C82.3877 41.0059 82.3062 41.0059 82.1432 40.8422Z" fill="white"/>
<path d="M81.3896 40.3742C81.3896 40.2308 81.4511 40.1693 81.5331 40.2308C81.5945 40.3127 81.5945 40.4356 81.5331 40.5176C81.4511 40.579 81.3896 40.5176 81.3896 40.3742Z" fill="white"/>
<path d="M83.672 40.0456C83.7331 39.6977 84.3649 39.1861 84.5076 39.3498C84.5687 39.4112 84.6706 39.6568 84.7318 39.9228C84.8744 40.3321 84.8133 40.3731 84.2426 40.3731C83.7535 40.3731 83.6109 40.2912 83.672 40.0456Z" fill="white"/>
<path d="M73.8481 40.0231C73.8481 39.9207 73.9502 39.7158 74.0522 39.5519C74.2154 39.3061 74.2562 39.3265 74.2562 39.7158C74.2562 39.9616 74.1746 40.1665 74.0522 40.1665C73.9502 40.1665 73.8481 40.105 73.8481 40.0231Z" fill="white"/>
<path d="M74.4595 39.5775C74.4595 39.0044 74.8875 38.8203 75.2135 39.25C75.4173 39.557 75.4173 39.6593 75.2135 39.8026C74.7856 40.0686 74.4595 39.9868 74.4595 39.5775Z" fill="white"/>
<path d="M80.6566 39.3163C80.2898 38.907 80.2898 38.8865 80.6363 39.0093C80.8401 39.0912 81.105 39.1526 81.2069 39.1526C81.3088 39.1526 81.3903 39.2958 81.3903 39.4595C81.3903 39.8893 81.105 39.8484 80.6566 39.3163Z" fill="white"/>
<path d="M76.2747 39.2835C75.3983 38.6082 75.276 37.0938 76.0912 37.0938C76.6415 37.0938 77.151 37.9533 77.0695 38.7514C77.0084 39.4882 76.7638 39.6519 76.2747 39.2835Z" fill="white"/>
<path d="M81.8591 39.4113C81.9407 39.3499 82.0631 39.3499 82.1447 39.4113C82.2059 39.4933 82.1447 39.5547 82.0019 39.5547C81.8591 39.5547 81.7979 39.4933 81.8591 39.4113Z" fill="white"/>
<path d="M84.9371 38.6147C84.9983 38.4304 85.0595 38.246 85.0595 38.205C85.0595 38.164 85.1615 38.123 85.2635 38.123C85.3859 38.123 85.4676 38.3074 85.4676 38.5328C85.4676 38.7786 85.3247 38.9425 85.1411 38.9425C84.9167 38.9425 84.8555 38.8401 84.9371 38.6147Z" fill="white"/>
<path d="M74.2551 38.5531C74.2551 38.0824 74.6831 37.3047 74.9277 37.3047C75.3557 37.3047 75.05 38.6145 74.6016 38.6963C74.4182 38.7372 74.2551 38.6758 74.2551 38.5531Z" fill="white"/>
<path d="M78.8419 38.3269L78.2305 38.1837L78.7807 38.0404C79.3514 37.8767 79.759 37.9995 79.759 38.3474C79.759 38.552 79.7386 38.552 78.8419 38.3269Z" fill="white"/>
<path d="M78.1301 37.3454C78.1301 36.5064 78.5989 36.3836 79.0269 37.1203C79.3122 37.6115 79.3326 37.7138 79.0676 37.7138C78.9046 37.7138 78.6396 37.7752 78.4562 37.8366C78.2116 37.9389 78.1301 37.8161 78.1301 37.3454Z" fill="white"/>
<path d="M81.6744 37.6321C80.7573 37.2228 80.1663 36.1381 80.1663 34.8488C80.1663 33.9279 80.2478 33.7028 80.798 33.1911C81.1445 32.8637 81.491 32.5977 81.5929 32.5977C82.0412 32.5977 83.692 34.1735 84.2423 35.1558L84.8741 36.2814L84.2015 36.9977C83.4271 37.8163 82.5711 38.0414 81.6744 37.6321Z" fill="white"/>
<path d="M77.415 37.1033C77.3538 37.0009 77.3946 36.8984 77.4966 36.8984C77.619 36.8984 77.721 37.0009 77.721 37.1033C77.721 37.2262 77.6802 37.3082 77.6394 37.3082C77.5782 37.3082 77.4762 37.2262 77.415 37.1033Z" fill="white"/>
<path d="M74.7458 36.7685C74.807 36.5843 74.8681 36.4001 74.8681 36.3592C74.8681 36.3183 75.0515 36.2773 75.2757 36.2773C75.7852 36.2773 75.8056 36.6048 75.2961 36.8913C74.7458 37.1778 74.6032 37.1573 74.7458 36.7685Z" fill="white"/>
<path d="M76.3545 36.533C75.8857 36.4716 75.743 36.2056 76.0488 36.0214C76.1303 35.96 76.4971 35.8577 76.864 35.7758C77.4142 35.653 77.5161 35.694 77.5161 36.0419C77.5161 36.4716 77.0881 36.6558 76.3545 36.533Z" fill="white"/>
<path d="M77.9272 35.8337C77.9272 35.5879 77.9476 35.4445 77.9885 35.4855C78.0089 35.5264 78.1721 35.7313 78.3149 35.9362C78.5597 36.223 78.5393 36.2845 78.2537 36.2845C78.0497 36.2845 77.9272 36.1206 77.9272 35.8337Z" fill="white"/>
<path d="M75.0713 35.6861C75.0713 35.5632 75.1733 35.4198 75.2753 35.3583C75.3977 35.2968 75.4793 35.3788 75.4793 35.5427C75.4793 35.7271 75.3977 35.8705 75.2753 35.8705C75.1733 35.8705 75.0713 35.7885 75.0713 35.6861Z" fill="white"/>
<path d="M75.826 35.3792C75.663 34.9699 77.11 34.5197 77.3545 34.9085C77.5379 35.236 77.3545 35.3792 76.5801 35.543C76.1113 35.6453 75.9075 35.6044 75.826 35.3792Z" fill="white"/>
<path d="M77.7428 34.7331C77.7428 34.5077 77.8042 34.4463 77.8657 34.6102C77.9272 34.7536 77.9067 34.938 77.8452 34.9994C77.7838 35.0814 77.7223 34.9585 77.7428 34.7331Z" fill="white"/>
<path d="M76.0109 34.394C76.2555 33.9438 76.9688 33.207 77.1522 33.207C77.356 33.207 77.3764 34.1689 77.1726 34.2917C77.0707 34.3326 76.7446 34.4349 76.4389 34.5168C75.9905 34.6191 75.8886 34.5987 76.0109 34.394Z" fill="white"/>
<path d="M77.6393 33.932C77.4152 33.3181 77.5171 33.052 78.0062 32.9702C78.5157 32.8678 78.5157 32.8678 78.1896 33.5023C77.782 34.3209 77.8024 34.3209 77.6393 33.932Z" fill="white"/>
<path d="M77.5193 32.7057C77.5193 32.6648 77.9269 32.3783 78.4364 32.0917C79.0478 31.7234 79.4758 31.6006 79.7815 31.6824C80.1483 31.8052 80.0464 31.8871 79.1497 32.3169C78.1511 32.7671 77.5193 32.9308 77.5193 32.7057Z" fill="white"/>
<path d="M88.8297 14.5643C88.2795 13.7662 87.1178 12.4769 86.2822 11.6992C85.4466 10.9215 84.8963 10.2871 85.0594 10.2871C85.5078 10.2871 88.9316 11.2285 89.7876 11.5969C90.5009 11.9039 90.5213 11.9448 90.3379 12.5792C90.236 12.9476 90.1544 13.8685 90.1544 14.6257C90.1544 15.4034 90.0933 16.0173 90.0118 16.0173C89.9099 16.0173 89.4004 15.3625 88.8297 14.5643Z" fill="white"/>
<path d="M47.354 76.5556C46.5184 76.1259 46.335 75.8803 45.2752 73.7724C43.7467 70.7845 43.7059 70.0887 45.1529 71.7873C45.7236 72.4626 47.0483 73.8542 48.0877 74.8775C49.8608 76.5966 49.9423 76.7194 49.3512 76.6375C48.9233 76.5761 48.7602 76.617 48.8621 76.7808C49.1067 77.1491 48.3322 77.0468 47.354 76.5556Z" fill="white"/>
<path fill-rule="evenodd" clip-rule="evenodd" d="M81.5118 113.843C81.3426 113.439 81.5312 112.975 81.9329 112.805L82.372 112.618C86.6411 110.783 89.0914 109.682 90.7564 107.932C92.4214 106.182 92.6206 103.613 92.9334 102.049C93.0192 101.62 93.9869 102.373 94.4143 102.46C94.8416 102.546 95.1185 102.964 95.0326 103.393C94.6566 105.273 93.6437 107.065 92.0133 108.767C90.3883 110.462 87.2422 112.28 82.5454 114.266C82.1437 114.435 81.6809 114.246 81.5118 113.843Z" fill="#00160A"/>
<path fill-rule="evenodd" clip-rule="evenodd" d="M100.816 32.1937C101.19 31.9698 101.675 32.0932 101.897 32.4693C104.13 36.2352 105.326 40.5401 105.326 45.019C105.326 58.588 94.3717 69.5879 80.859 69.5879C77.2683 69.5879 73.7857 68.8102 70.5966 67.3286C70.201 67.1448 68.7066 65.6813 70.2117 66.2765C71.7168 66.8717 77.5403 68.2077 80.9009 68.2077C93.5418 68.2077 102.485 57.7126 102.485 45.019C102.485 40.8275 100.816 37.1071 100.541 33.2801C100.509 32.8365 100.441 32.4176 100.816 32.1937Z" fill="#00160A"/>
<path fill-rule="evenodd" clip-rule="evenodd" d="M22.6504 92.1652C22.9293 91.8289 23.427 91.1493 23.7619 91.4294C25.1359 92.5786 26.6021 93.9101 28.1705 94.1671C29.8026 94.4345 31.7388 94.4345 33.9766 94.1625C34.4093 94.1099 34.8026 94.4195 34.8549 94.8541C34.9073 95.2886 34.599 95.6835 34.1663 95.7361C31.7898 96.025 29.7074 96.025 27.9163 95.7315C26.0616 95.4276 24.3367 94.6071 22.7517 93.2814C22.4167 93.0013 22.3714 92.5015 22.6504 92.1652Z" fill="#00160A"/>
<path d="M39.4096 64.437C38.3906 63.6184 36.2099 61.2035 34.5591 59.0751C33.7031 57.9495 32.7453 55.6574 32.1746 53.3449C31.9097 52.3011 31.6447 51.3597 31.5836 51.237C31.5021 51.1346 31.176 49.6816 30.8499 48.0035C30.3608 45.6295 30.4642 44.8647 30.0347 42.0251C29.8528 40.8229 29.6882 39.8662 29.6882 39.8662L30.2181 39.183C30.5238 38.7737 30.9105 38.0964 31.0537 37.7095C31.7059 35.9474 36.4952 30.4239 36.6379 30.5672C36.6786 30.6081 36.5156 31.57 36.2303 32.6956C35.9653 33.8211 35.6393 35.5197 35.4966 36.4816C35.2928 38.0779 35.2113 38.2621 34.5795 38.7942C33.7847 39.4695 32.2765 41.6388 32.2765 42.089C32.2765 42.703 33.1936 42.2937 34.1515 41.2909L35.1298 40.2677V41.3932C35.1298 42.13 34.9871 42.8053 34.7221 43.3374C34.2126 44.3402 34.2126 45.4044 34.7018 46.223C34.9463 46.6323 35.1705 47.6146 35.3132 48.7811C35.945 54.0611 37.2901 58.6453 39.593 63.25C40.1637 64.396 40.612 65.3374 40.5916 65.3374C40.5509 65.3374 40.021 64.9281 39.4096 64.437Z" fill="white"/>
<path fill-rule="evenodd" clip-rule="evenodd" d="M124.21 77.0673L125.678 77.7222C125.982 77.8632 129.338 79.4828 133.37 81.4282C139.871 84.5647 148.127 88.5483 148.177 88.5483C148.259 88.5483 148.641 87.6602 148.728 86.6245C148.931 84.3938 149.685 81.365 150.562 79.2571C150.969 78.3157 151.295 77.1391 151.295 77.0368C151.295 76.9901 150.964 76.8559 150.422 76.6362C149.776 76.3747 148.831 75.992 147.79 75.4915C142.654 73.0152 132.607 67.9603 131.364 67.2031C130.141 66.4869 129.896 66.4255 129.896 66.8962C129.896 67.5101 128.653 70.3548 127.695 71.8896C127.186 72.7287 126.187 74.2431 125.474 75.2459L124.21 77.0673ZM147.832 84.8658C148.417 85.206 147.404 85.7049 147.16 85.7868C145.72 85.9095 144.024 85.6376 142.635 84.8249C141.909 84.3077 136.19 81.1174 132.397 79.0011C130.663 78.0336 129.331 77.2905 129.062 77.13C128.206 76.6184 127.391 76.0658 127.248 75.9021C126.82 75.3496 127.228 75.104 128.43 75.2063C129.153 75.2678 146.57 84.1312 147.832 84.8658Z" fill="white"/>
<path d="M109.578 78.9085C109.048 78.7243 108.477 78.315 108.11 77.8443L107.499 77.0871L109.659 74.9383C112.981 71.6639 115.427 68.0853 117.628 64.0946C118.361 62.7644 120.542 57.3997 120.807 56.8062C121.215 55.9466 121.52 55.6192 122.397 55.128C123.436 54.5141 124.618 54.3094 125.128 54.6573C126.106 55.3122 126.106 57.3792 125.128 60.9401C124.048 64.849 122.601 67.6527 119.605 71.6843C119.136 72.2983 118.26 73.5057 117.628 74.3448C115.936 76.5959 114.836 77.6806 113.348 78.5197C111.881 79.3383 111.025 79.4406 109.578 78.9085Z" fill="white"/>
<path d="M117.26 78.4346L116.832 78.0048C116.832 78.0048 123.935 68.9422 125.208 65.603C126.179 63.0547 126.751 62.332 127.522 62.332C127.953 62.332 128.306 62.4309 128.469 62.6765C128.754 63.1062 129.029 63.6383 128.662 65.4597C128.051 68.4067 127.113 70.3509 124.301 74.5462C123.649 75.5081 122.813 76.5723 122.446 76.9407C121.59 77.7388 119.664 78.5574 118.543 78.7416C117.83 78.8439 117.626 78.803 117.26 78.4346Z" fill="white"/>
<path fill-rule="evenodd" clip-rule="evenodd" d="M129.194 68.962C129.605 68.0177 129.898 67.1942 129.898 66.8962C129.898 66.4255 130.143 66.4869 131.366 67.2031C132.609 67.9603 142.656 73.0152 147.792 75.4915C149.708 76.4124 151.297 76.9345 151.297 77.0368C151.297 77.1391 128.758 69.9631 129.194 68.962Z" fill="#E7EAEE"/>
<path fill-rule="evenodd" clip-rule="evenodd" d="M59.4639 70.1295C56.8757 68.4309 52.9627 64.4402 51.0673 61.5956C48.3567 57.5026 46.5633 53.1231 45.6869 48.4161C45.0551 44.9984 45.0755 39.7389 45.7073 36.6896C46.3595 33.5789 47.1951 31.2049 48.6828 28.1966C50.4151 24.7175 52.2493 22.1594 55.0007 19.3966C57.6987 16.6873 45.7073 27.8913 48.6828 47.9377C51.0673 64.7365 61.315 71.3542 59.4639 70.1295Z" fill="#E7EAEE"/>
</svg>
