<svg width="114" height="43" viewBox="0 0 114 43" fill="none" xmlns="http://www.w3.org/2000/svg">
<g clip-path="url(#clip0_522_619)">
<path d="M55.1573 0.122864C46.4353 0.368578 37.5905 1.10572 29.8513 2.21144C29.6056 2.58001 29.4828 2.94858 29.4828 3.44001L29.3599 5.52858V6.02001C29.3599 6.26572 29.3599 6.51144 29.3599 6.75715L37.959 5.65144L36.2392 27.3971C36.2392 27.6429 36.2392 27.8886 36.4849 28.0114C38.0819 27.8886 39.6789 27.6429 41.2759 27.52L43.1185 5.52858L50.1207 5.03715C51.2263 3.19429 52.9461 1.59715 55.1573 0.122864Z" fill="white"/>
<path d="M95.819 6.63428C95.4504 7.49428 95.3276 8.59999 95.2047 9.70571C95.2047 10.8114 95.3276 12.04 95.6961 13.0228C96.0647 14.1286 96.556 14.9886 97.1703 15.8486C97.7845 16.7086 98.5215 17.4457 99.5043 18.06C100.487 18.6743 101.47 19.0428 102.698 19.2886L106.506 20.0257C107.612 20.2714 108.595 20.7628 109.209 21.5C109.823 22.2371 110.069 23.22 110.069 24.4486C110.069 25.5543 109.7 26.4143 109.086 26.9057C108.472 27.3971 107.735 28.0114 106.629 27.7657L96.9246 25.8L98.7672 29.7314C98.8901 29.8543 99.0129 30.1 99.0129 30.2228C102.207 30.96 105.155 31.6971 107.981 32.5571C108.472 32.5571 108.963 32.5571 109.332 32.4343C110.315 32.1886 111.175 31.82 111.789 31.2057C112.403 30.5914 112.894 29.8543 113.263 28.8714C113.631 27.8886 113.754 26.9057 113.877 25.6771C114 22.9743 113.386 20.7628 112.034 19.1657C111.052 17.9371 109.823 17.0771 108.472 16.5857C106.998 15.9714 105.401 15.7257 103.804 15.48C103.19 15.3571 102.453 15.1114 101.838 14.7428C100.364 13.8828 99.3815 12.1628 99.6271 10.32C99.6271 9.82856 99.8728 8.84571 100.487 8.84571C101.224 8.84571 101.224 8.84571 102.207 8.96856L104.05 9.45999C104.787 9.58285 105.769 8.47713 106.138 7.98571L107.612 6.14285C104.664 5.28285 101.716 4.42285 98.5215 3.80856C98.0302 4.05428 97.6616 4.29999 97.2931 4.54571C96.6789 5.03713 96.1875 5.77428 95.819 6.63428Z" fill="white"/>
<path d="M77.3922 27.2743C78.8664 27.3971 80.3405 27.52 81.8146 27.6429C81.9375 27.52 81.9375 27.3971 81.9375 27.2743C81.3233 16.5857 80.8319 8.6 80.8319 8.6C80.8319 8.6 89.9224 26.9057 90.9052 28.7486L91.028 28.8714C91.8879 28.9943 92.7478 29.1171 93.6077 29.24L95.819 29.6086C96.1875 29.6086 96.3103 29.24 96.0646 28.8714C95.6961 28.1343 83.0431 3.80857 82.6746 3.31715C82.5517 3.07143 81.8147 1.96572 80.2177 0.98286C78.7435 0.860003 77.3922 0.737145 75.9181 0.614288C76.778 16.9543 76.4095 10.5657 77.3922 27.0286C77.3922 27.0286 77.3922 27.1514 77.3922 27.2743Z" fill="white"/>
<path d="M9.21336 20.3943C8.59914 21.5 4.54526 28.5028 0 36.12C2.21121 35.26 4.6681 34.4 7.24784 33.6628C14.0043 22.1143 20.3922 11.18 20.3922 11.18L19.1638 29.8543C19.1638 30.1 19.4095 30.3457 19.6552 30.3457L23.4634 29.6086C23.7091 29.6086 23.9547 29.4857 24.2004 29.4857C24.4461 29.3628 24.569 29.3629 24.569 29.1171C25.4289 16.2171 26.0431 5.65142 26.2888 2.70285C23.9547 3.07142 21.6207 3.56285 19.2866 4.05428C18.9181 4.54571 18.6724 4.91428 18.3039 5.40571C17.1983 6.75714 11.056 17.3229 9.21336 20.3943Z" fill="white"/>
<path d="M59.5797 21.9914C59.0884 21.9914 58.597 21.6229 58.597 21.0086L60.3168 0.86L60.4397 0C58.3513 1.47429 56.6315 3.56286 55.403 5.16L55.2802 5.89714L54.0517 19.0429L53.9289 19.6571L53.4375 24.6943C53.3147 25.6771 54.0517 26.5371 55.1573 26.5371C55.1573 26.5371 57.7371 26.66 60.6853 26.66C60.931 26.66 61.1767 26.66 61.2996 26.66C65.3534 26.7829 69.8987 26.9057 69.8987 26.9057C71.7414 26.9057 72.6013 25.0629 73.3384 23.7114C73.3384 23.5886 73.8297 22.6057 73.8297 22.6057L59.5797 21.9914Z" fill="white"/>
<path d="M21.1293 42.3857C21.0065 42.5086 20.8836 42.6314 20.7608 42.6314C20.3922 42.7543 20.1466 42.7543 19.778 42.7543H16.5841V37.4714H19.6552C19.778 37.4714 19.9009 37.4714 20.1466 37.4714C20.5151 37.4714 20.8836 37.5943 21.0065 37.84C21.0065 37.84 21.1293 37.9629 21.2522 38.2086C21.375 38.3314 21.375 38.5772 21.375 38.8229C21.375 38.9457 21.375 39.4372 20.8836 39.8057C20.7608 39.8057 20.7608 39.9286 20.5151 40.0514L20.7608 40.1743C20.8836 40.1743 21.0065 40.2972 21.1293 40.42C21.4978 40.7886 21.4978 41.1571 21.4978 41.28C21.4978 41.5257 21.4978 42.0171 21.1293 42.3857ZM19.778 40.9114C19.6552 40.6657 19.2866 40.6657 19.2866 40.6657H18.3039V41.7714H19.4095C19.6552 41.7714 19.778 41.7714 19.9009 41.5257C20.0237 41.4029 20.0237 41.28 20.0237 41.28C19.9009 41.1571 19.9009 41.0343 19.778 40.9114ZM19.6552 38.8229C19.5323 38.5772 19.2866 38.5771 19.1638 38.5771H18.181V39.4371H19.1638C19.2866 39.4371 19.5323 39.4371 19.6552 39.1914C19.6552 39.0686 19.6552 38.9457 19.6552 38.9457C19.6552 38.9457 19.6552 38.9457 19.6552 38.8229Z" fill="white"/>
<path d="M25.4289 42.8772V37.5943H29.7284V38.7H27.1487V39.56H29.4828V40.6657H27.1487V41.6486H29.8513V42.8772H25.4289Z" fill="white"/>
<path d="M37.5905 42.8772L37.3448 42.14H35.5022L35.2565 42.8772H33.4138L35.3793 37.5943H37.3448L39.3103 42.8772H37.5905ZM36.3621 39.0686L35.7478 40.9114H36.8534L36.3621 39.0686Z" fill="white"/>
<path d="M47.6638 42.14C47.4181 42.5086 46.681 43 45.5754 43C44.9612 43 44.347 42.8771 43.7328 42.3857C42.8728 41.6486 42.75 40.5429 42.75 40.1743C42.75 39.8057 42.75 39.0686 43.2414 38.4543C43.9784 37.4714 44.9612 37.3486 45.4526 37.3486C46.681 37.3486 47.4181 37.9629 47.6638 38.3314C47.7866 38.4543 47.9095 38.7 48.0323 38.8229L46.681 39.56C46.681 39.56 46.681 39.4371 46.5582 39.4371C46.4353 39.3143 46.1897 38.7 45.5754 38.7C45.2069 38.7 45.084 38.8229 44.9612 38.9457C44.4698 39.3143 44.4698 40.0514 44.4698 40.2971C44.4698 41.0343 44.7155 41.4029 44.9612 41.6486C45.2069 41.8943 45.4526 41.8943 45.5754 41.8943C46.1897 41.8943 46.4353 41.5257 46.5582 41.28C46.5582 41.1571 46.681 41.1571 46.681 41.0343L48.1552 41.7714C47.9095 41.7714 47.9095 42.0171 47.6638 42.14Z" fill="white"/>
<path d="M55.2802 42.8772V40.7886H53.6832V42.8772H51.9634V37.5943H53.6832V39.4372H55.2802V37.5943H57V42.8772H55.2802Z" fill="white"/>
<path d="M71.7414 42.14C71.3728 42.5086 70.7586 43 69.5302 43C68.9159 43 68.3017 42.8771 67.6875 42.3857C66.8276 41.6486 66.7047 40.5429 66.7047 40.1743C66.7047 39.8057 66.7047 39.0686 67.1961 38.4543C67.9332 37.4714 68.9159 37.3486 69.4073 37.3486C70.6358 37.3486 71.3728 37.9629 71.6185 38.3314C71.7414 38.4543 71.8642 38.7 71.9871 38.8229L70.6358 39.56C70.6358 39.56 70.6358 39.4371 70.5129 39.4371C70.3901 39.3143 70.1444 38.7 69.5302 38.7C69.1616 38.7 69.0388 38.8229 68.9159 38.9457C68.4246 39.3143 68.4246 40.0514 68.4246 40.2971C68.4246 41.0343 68.6703 41.4029 68.9159 41.6486C69.1616 41.8943 69.4073 41.8943 69.5302 41.8943C70.1444 41.8943 70.3901 41.5257 70.5129 41.28C70.5129 41.1571 70.6358 41.1571 70.6358 41.0343L72.1099 41.7714C71.8642 41.7714 71.8642 42.0171 71.7414 42.14Z" fill="white"/>
<path d="M75.9181 42.8772V37.5943H77.6379V41.5257H79.7263V42.8772H75.9181Z" fill="white"/>
<path d="M88.2026 41.6486C87.834 42.6314 86.8513 43 85.8685 43C85.6228 43 85.1315 43 84.6401 42.7543C84.3944 42.6314 83.903 42.3857 83.6573 41.7714C83.5345 41.5257 83.5345 41.28 83.5345 40.6657V37.4714H85.2543V40.7886C85.2543 40.7886 85.2543 41.0343 85.2543 41.1571C85.3772 41.5257 85.8685 41.5257 85.8685 41.5257C85.9914 41.5257 86.3599 41.5257 86.6056 41.1571C86.6056 41.0343 86.6056 40.9114 86.6056 40.7886V37.4714H88.3254V40.6657C88.3254 41.0343 88.3254 41.4029 88.2026 41.6486Z" fill="white"/>
<path d="M97.0474 42.3857C96.9246 42.5086 96.8017 42.6314 96.6789 42.6314C96.3103 42.7543 96.0647 42.7543 95.6961 42.7543H92.5022V37.4714H95.6961C95.819 37.4714 95.9418 37.4714 96.1875 37.4714C96.556 37.4714 96.9246 37.5943 97.0474 37.84C97.0474 37.84 97.1703 37.9629 97.2931 38.2086C97.4159 38.3314 97.416 38.5772 97.416 38.8229C97.416 38.9457 97.416 39.4372 96.9246 39.8057C96.8017 39.8057 96.8017 39.9286 96.556 40.0514L96.8017 40.1743C96.9246 40.1743 97.0474 40.2972 97.1703 40.42C97.5388 40.7886 97.5388 41.1571 97.5388 41.28C97.416 41.5257 97.4159 42.0171 97.0474 42.3857ZM95.5733 40.9114C95.4504 40.6657 95.0819 40.6657 95.0819 40.6657H94.0991V41.7714H95.2047C95.4504 41.7714 95.5733 41.7714 95.6961 41.5257C95.819 41.4029 95.819 41.28 95.819 41.28C95.6961 41.1571 95.6961 41.0343 95.5733 40.9114ZM95.4504 38.8229C95.3276 38.5772 95.0819 38.5771 94.9591 38.5771H93.9763V39.4371H94.9591C95.0819 39.4371 95.3276 39.4371 95.4504 39.1914C95.4504 39.0686 95.4504 38.9457 95.4504 38.9457C95.5733 38.9457 95.5733 38.9457 95.4504 38.8229Z" fill="white"/>
</g>
<defs>
<clipPath id="clip0_522_619">
<rect width="114" height="43" fill="white"/>
</clipPath>
</defs>
</svg>
