<svg width="64" height="54" viewBox="0 0 64 54" fill="none" xmlns="http://www.w3.org/2000/svg">
<path fill-rule="evenodd" clip-rule="evenodd" d="M25.3427 4.44152C25.5371 4.58537 25.7315 4.72923 25.926 4.87297C27.3362 5.91348 30.8098 7.91049 30.8098 7.91049C30.8098 7.91049 30.8033 38.247 30.8098 52.9564C30.8098 53.7384 30.1629 54.1003 29.6972 53.9646C29.5614 53.9258 29.4191 53.8612 29.3091 53.7707C28.6477 53.2482 27.9851 52.7278 27.3226 52.2075C25.3544 50.6618 23.3872 49.1168 21.4563 47.5211C19.5092 45.9119 18.4872 43.7727 18.3061 41.2457C18.2802 40.8967 18.2737 40.5413 18.2737 40.1858V24.9853V24.6815C17.936 25.0261 17.6083 25.3607 17.2806 25.6953C17.0182 25.9632 16.7559 26.2311 16.4884 26.504C16.1761 26.1888 15.8736 25.885 15.5695 25.5794C15.2688 25.2774 14.9664 24.9737 14.6513 24.6557V42.1311C10.7269 39.0687 6.83486 36.0341 2.92823 32.9881C2.21794 32.4343 1.50717 31.8801 0.795634 31.3253C1.19669 31.1379 2.12816 30.7049 2.12816 30.7049C2.12816 30.7049 2.12816 15.2781 2.12169 7.68429C1.66426 6.9826 0.820684 5.70056 0.345353 4.97816C0.155233 4.68922 0.024025 4.48981 0 4.45288C0.14073 4.50064 0.271651 4.54294 0.396788 4.58338C0.5765 4.64146 0.744284 4.69568 0.912069 4.75664C1.66889 5.02161 2.50334 5.01515 3.26016 4.73725C4.34333 4.344 6.28791 3.64142 8.07769 2.99476C9.9647 2.31298 11.6796 1.69336 12.0315 1.564C12.6461 1.33134 13.2412 1.31842 13.8104 1.69326C14.302 2.0164 14.5866 2.47526 14.6254 3.06984C14.6319 3.19262 14.6319 3.32185 14.6319 3.44463V3.44468V19.55V19.8926C15.0007 19.5124 15.3556 19.1463 15.7104 18.7801C15.9468 18.5362 16.1832 18.2923 16.4237 18.0442C16.7588 18.3824 17.0776 18.7043 17.3963 19.0262C17.6807 19.3133 17.965 19.6004 18.2608 19.899V19.563C18.2608 13.727 18.2608 7.89757 18.2672 2.06164C18.2737 1.2861 18.1832 0.568728 17.5169 0.0452398C17.5234 0.0387769 17.5282 0.0306984 17.5331 0.0226199C17.5379 0.0145413 17.5428 0.00646282 17.5492 0C17.602 0.00930062 17.6547 0.0182294 17.7074 0.0271432C17.8743 0.0553933 18.0403 0.0834919 18.2026 0.122794C19.5027 0.433009 20.6541 1.06637 21.7344 1.82252C22.9529 2.67302 24.1474 3.55699 25.3427 4.44152ZM62.7602 6.34061C62.4859 6.75442 62.211 7.16917 61.943 7.58734C61.9495 12.2341 61.9495 30.7372 61.9495 30.7372C61.9495 30.7372 62.8033 31.1508 63.1785 31.3253C60.0865 33.7747 57.0204 36.1982 53.909 38.6541V33.1607C53.8494 33.1976 53.721 33.3056 53.5773 33.4266C53.3937 33.5811 53.185 33.7568 53.0616 33.8329C52.0331 34.4662 51.548 35.3516 51.5868 36.5214C51.6515 38.2987 51.147 40.063 49.9955 41.4202C48.9701 42.6285 45.6398 45.2089 44.2783 46.2638C44.0595 46.4333 43.8916 46.5634 43.7922 46.6422V41.1294C43.7922 41.1294 42.7184 41.9502 42.3044 42.3379C41.7481 42.8614 41.457 43.6046 41.457 44.3673C41.4574 44.4141 41.4578 44.4609 41.4583 44.5077C41.4651 45.2557 41.4719 46.0032 41.2953 46.7391C40.9395 48.2449 40.1698 49.4923 38.9602 50.4552C38.0373 51.192 37.1088 51.923 36.1802 52.654C35.7159 53.0195 35.2515 53.385 34.7879 53.7513C34.3157 54.1261 33.7465 54.0744 33.4295 53.6156C33.3907 53.5574 33.3649 53.4928 33.339 53.4217C33.2872 53.2666 33.2549 53.0016 33.2549 52.8335C33.2549 37.9626 33.2484 7.91048 33.2484 7.91048C33.2484 7.91048 37.3883 5.4029 39.0831 4.12973C39.6359 3.71923 40.1908 3.3152 40.7454 2.91141C41.1513 2.6159 41.557 2.32053 41.9616 2.02285C42.0015 1.99095 42.0439 1.96397 42.0857 1.93736C42.1116 1.92084 42.1373 1.90446 42.1621 1.88713C41.8775 2.37184 41.6317 2.86301 41.5217 3.41235C41.4829 3.60624 41.457 3.80659 41.457 4.00693V37.8269C42.0004 37.4391 42.4208 37.0061 42.7702 36.5085C43.4882 35.4873 43.7857 34.3499 43.7857 33.109C43.7825 28.1779 43.7825 23.2451 43.7825 18.3116C43.7825 13.378 43.7825 8.44366 43.7792 3.5093C43.7792 2.63035 44.135 1.77726 44.8207 1.22792C45.2347 0.898317 45.7134 0.685044 46.2438 0.665655C47.7186 0.60749 49.1934 0.633341 50.6101 1.10513C51.438 1.38303 53.0487 2.06162 53.0487 2.08101C53.0228 2.09071 52.9986 2.10202 52.9743 2.11333C52.9501 2.12464 52.9258 2.13595 52.8999 2.14564C52.1366 2.43001 51.5998 3.19262 51.5868 4.00693V4.14265V29.8388C51.9814 29.5674 52.2919 29.2636 52.5636 28.9276C53.4433 27.8547 53.9026 26.4846 53.9026 25.0951C53.9026 22.8633 53.9033 20.6315 53.904 18.3996C53.9054 13.936 53.9069 9.47233 53.9026 5.00867C53.9026 4.47226 54.0319 3.99401 54.4136 3.6127C54.9375 3.08921 55.5715 2.90179 56.283 3.14738C56.8919 3.35597 57.4952 3.57577 58.0989 3.79573C58.6176 3.98469 59.1365 4.17376 59.6596 4.35593C59.7016 4.37208 59.7453 4.38662 59.789 4.40117C59.8326 4.41571 59.8763 4.43025 59.9183 4.44641C61.2379 4.89234 62.661 4.8988 63.9806 4.46579L64 4.45933C63.7881 4.78309 63.5869 5.08818 63.3913 5.38489C63.2823 5.55016 63.175 5.71284 63.0685 5.87469C62.9661 6.02995 62.8632 6.18521 62.7602 6.34061Z" fill="white"/>
</svg>
